# xmcd
#
# Track frame offsets:
#	150
#	15427
#	26331
#	40963
#	56142
#	68315
#	84686
#	99161
#	116459
#	133040
#	148743
#	163283
#	181448
#	191406
#
# Disc length: 2738 seconds
#
# Revision: 5
# Processed by: cddbd v1.5.2PL0 Copyright (c) Steve Scherf et al.
# Submitted via: audiograbber 1.83.01
#
DISCID=b60ab00e
DTITLE=Vários - Forró Legal
DYEAR=1998
DGENRE=Forró
TTITLE0=É o Tchan - Procurando Tu
TTITLE1=Zeca Pagodinho - Severina Xique-Xique
TTITLE2=Tania Alves - Pisa Na Fulô
TTITLE3=Sandy and Junior - Xote das Meninas
TTITLE4=Mastruz com Leite - Um a Um
TTITLE5=Companhia do Pagode - Peraí
TTITLE6=Cheiro de Amor - Coração Bobo
TTITLE7=Elba Ramalho - Banho de Cheiro
TTITLE8=José Augusto - Eu Só Quero Um Xodó
TTITLE9=Débora Brasil - Canção Nordestina
TTITLE10=Gal Costa - Festa do Interior
TTITLE11=Pimenta N'Ativa - Morena da Ladeira
TTITLE12=Tim Maia - Coroné Antonio Bento
TTITLE13=É o Tchan - Arrasta-Pé
EXTD=
EXTT0=
EXTT1=
EXTT2=
EXTT3=
EXTT4=
EXTT5=
EXTT6=
EXTT7=
EXTT8=
EXTT9=
EXTT10=
EXTT11=
EXTT12=
EXTT13=
PLAYORDER=
